<svg height='100px' width='100px'  fill="#1A1A1A" xmlns="http://www.w3.org/2000/svg" version="1.1" x="0px" y="0px" viewBox="0 0 32 32" enable-background="new 0 0 32 32" xml:space="preserve"><path d="M2 30V2h17c0.553 0 1-0.447 1-1s-0.447-1-1-1H2C0.896 0 0 0.896 0 2v28c0 1.104 0.896 2 2 2h28c1.104 0 2-0.896 2-2V13c0-0.553-0.447-1-1-1s-1 0.447-1 1v17H2z"></path><path d="M32 7c0 0.553-0.447 1-1 1s-1-0.447-1-1V3.414L16.707 16.707C16.526 16.888 16.276 17 16 17c-0.553 0-1-0.447-1-1 0-0.276 0.112-0.526 0.293-0.707L28.586 2H25c-0.553 0-1-0.447-1-1s0.447-1 1-1h6c0.553 0 1 0.447 1 1V7z"></path></svg>