<svg xmlns="http://www.w3.org/2000/svg" viewBox="0 0 940.5 940.5"><g id="Layer_2" data-name="Layer 2"><g id="Layer_1-2" data-name="Layer 1"><polygon class="cls-1" points="658 0 752.5 0 752.5 94.5 658 0"/><polygon class="cls-1" points="752.5 94.5 658 94.5 658 0 752.5 94.5"/><polygon class="cls-1" points="752 0 846.5 0 846.5 94.5 752 0"/><polygon class="cls-1" points="846.5 94.5 752 94.5 752 0 846.5 94.5"/><polygon class="cls-1" points="470 0 564.5 0 564.5 94.5 470 0"/><polygon class="cls-1" points="564.5 94.5 470 94.5 470 0 564.5 94.5"/><polygon class="cls-1" points="564 0 658.5 0 658.5 94.5 564 0"/><polygon class="cls-1" points="658.5 94.5 564 94.5 564 0 658.5 94.5"/><polygon class="cls-1" points="846 0 940.5 0 940.5 94.5 846 0"/><polygon class="cls-1" points="940.5 94.5 846 94.5 846 0 940.5 94.5"/><polygon class="cls-1" points="188 0 282.5 0 282.5 94.5 188 0"/><polygon class="cls-1" points="282.5 94.5 188 94.5 188 0 282.5 94.5"/><polygon class="cls-1" points="282 0 376.5 0 376.5 94.5 282 0"/><polygon class="cls-1" points="376.5 94.5 282 94.5 282 0 376.5 94.5"/><polygon class="cls-1" points="0 0 94.5 0 94.5 94.5 0 0"/><polygon class="cls-1" points="94.5 94.5 0 94.5 0 0 94.5 94.5"/><polygon class="cls-1" points="94 0 188.5 0 188.5 94.5 94 0"/><polygon class="cls-1" points="188.5 94.5 94 94.5 94 0 188.5 94.5"/><polygon class="cls-1" points="376 0 470.5 0 470.5 94.5 376 0"/><polygon class="cls-1" points="470.5 94.5 376 94.5 376 0 470.5 94.5"/><polygon class="cls-1" points="658 94 752.5 94 752.5 188.5 658 94"/><polygon class="cls-1" points="752.5 188.5 658 188.5 658 94 752.5 188.5"/><polygon class="cls-1" points="752 94 846.5 94 846.5 188.5 752 94"/><polygon class="cls-1" points="846.5 188.5 752 188.5 752 94 846.5 188.5"/><polygon class="cls-1" points="470 94 564.5 94 564.5 188.5 470 94"/><polygon class="cls-1" points="564.5 188.5 470 188.5 470 94 564.5 188.5"/><polygon class="cls-1" points="564 94 658.5 94 658.5 188.5 564 94"/><polygon class="cls-1" points="658.5 188.5 564 188.5 564 94 658.5 188.5"/><polygon class="cls-1" points="846 94 940.5 94 940.5 188.5 846 94"/><polygon class="cls-1" points="940.5 188.5 846 188.5 846 94 940.5 188.5"/><polygon class="cls-1" points="188 94 282.5 94 282.5 188.5 188 94"/><polygon class="cls-1" points="282.5 188.5 188 188.5 188 94 282.5 188.5"/><polygon class="cls-1" points="282 94 376.5 94 376.5 188.5 282 94"/><polygon class="cls-1" points="376.5 188.5 282 188.5 282 94 376.5 188.5"/><polygon class="cls-1" points="0 94 94.5 94 94.5 188.5 0 94"/><polygon class="cls-1" points="94.5 188.5 0 188.5 0 94 94.5 188.5"/><polygon class="cls-1" points="94 94 188.5 94 188.5 188.5 94 94"/><polygon class="cls-1" points="188.5 188.5 94 188.5 94 94 188.5 188.5"/><polygon class="cls-1" points="376 94 470.5 94 470.5 188.5 376 94"/><polygon class="cls-1" points="470.5 188.5 376 188.5 376 94 470.5 188.5"/><polygon class="cls-1" points="658 188 752.5 188 752.5 282.5 658 188"/><polygon class="cls-1" points="752.5 282.5 658 282.5 658 188 752.5 282.5"/><polygon class="cls-1" points="752 188 846.5 188 846.5 282.5 752 188"/><polygon class="cls-1" points="846.5 282.5 752 282.5 752 188 846.5 282.5"/><polygon class="cls-1" points="470 188 564.5 188 564.5 282.5 470 188"/><polygon class="cls-1" points="564.5 282.5 470 282.5 470 188 564.5 282.5"/><polygon class="cls-1" points="564 188 658.5 188 658.5 282.5 564 188"/><polygon class="cls-1" points="658.5 282.5 564 282.5 564 188 658.5 282.5"/><polygon class="cls-1" points="846 188 940.5 188 940.5 282.5 846 188"/><polygon class="cls-1" points="940.5 282.5 846 282.5 846 188 940.5 282.5"/><polygon class="cls-1" points="188 188 282.5 188 282.5 282.5 188 188"/><polygon class="cls-1" points="282.5 282.5 188 282.5 188 188 282.5 282.5"/><polygon class="cls-1" points="282 188 376.5 188 376.5 282.5 282 188"/><polygon class="cls-1" points="376.5 282.5 282 282.5 282 188 376.5 282.5"/><polygon class="cls-1" points="0 188 94.5 188 94.5 282.5 0 188"/><polygon class="cls-1" points="94.5 282.5 0 282.5 0 188 94.5 282.5"/><polygon class="cls-1" points="94 188 188.5 188 188.5 282.5 94 188"/><polygon class="cls-1" points="188.5 282.5 94 282.5 94 188 188.5 282.5"/><polygon class="cls-1" points="376 188 470.5 188 470.5 282.5 376 188"/><polygon class="cls-1" points="470.5 282.5 376 282.5 376 188 470.5 282.5"/><polygon class="cls-1" points="658 282 752.5 282 752.5 376.5 658 282"/><polygon class="cls-1" points="752.5 376.5 658 376.5 658 282 752.5 376.5"/><polygon class="cls-1" points="752 282 846.5 282 846.5 376.5 752 282"/><polygon class="cls-1" points="846.5 376.5 752 376.5 752 282 846.5 376.5"/><polygon class="cls-1" points="470 282 564.5 282 564.5 376.5 470 282"/><polygon class="cls-1" points="564.5 376.5 470 376.5 470 282 564.5 376.5"/><polygon class="cls-1" points="564 282 658.5 282 658.5 376.5 564 282"/><polygon class="cls-1" points="658.5 376.5 564 376.5 564 282 658.5 376.5"/><polygon class="cls-1" points="846 282 940.5 282 940.5 376.5 846 282"/><polygon class="cls-1" points="940.5 376.5 846 376.5 846 282 940.5 376.5"/><polygon class="cls-1" points="188 282 282.5 282 282.5 376.5 188 282"/><polygon class="cls-1" points="282.5 376.5 188 376.5 188 282 282.5 376.5"/><polygon class="cls-1" points="282 282 376.5 282 376.5 376.5 282 282"/><polygon class="cls-1" points="376.5 376.5 282 376.5 282 282 376.5 376.5"/><polygon class="cls-1" points="0 282 94.5 282 94.5 376.5 0 282"/><polygon class="cls-1" points="94.5 376.5 0 376.5 0 282 94.5 376.5"/><polygon class="cls-1" points="94 282 188.5 282 188.5 376.5 94 282"/><polygon class="cls-1" points="188.5 376.5 94 376.5 94 282 188.5 376.5"/><polygon class="cls-1" points="376 282 470.5 282 470.5 376.5 376 282"/><polygon class="cls-1" points="470.5 376.5 376 376.5 376 282 470.5 376.5"/><polygon class="cls-1" points="658 376 752.5 376 752.5 470.5 658 376"/><polygon class="cls-1" points="752.5 470.5 658 470.5 658 376 752.5 470.5"/><polygon class="cls-1" points="752 376 846.5 376 846.5 470.5 752 376"/><polygon class="cls-1" points="846.5 470.5 752 470.5 752 376 846.5 470.5"/><polygon class="cls-1" points="470 376 564.5 376 564.5 470.5 470 376"/><polygon class="cls-1" points="564.5 470.5 470 470.5 470 376 564.5 470.5"/><polygon class="cls-1" points="564 376 658.5 376 658.5 470.5 564 376"/><polygon class="cls-1" points="658.5 470.5 564 470.5 564 376 658.5 470.5"/><polygon class="cls-1" points="846 376 940.5 376 940.5 470.5 846 376"/><polygon class="cls-1" points="940.5 470.5 846 470.5 846 376 940.5 470.5"/><polygon class="cls-1" points="188 376 282.5 376 282.5 470.5 188 376"/><polygon class="cls-1" points="282.5 470.5 188 470.5 188 376 282.5 470.5"/><polygon class="cls-1" points="282 376 376.5 376 376.5 470.5 282 376"/><polygon class="cls-1" points="376.5 470.5 282 470.5 282 376 376.5 470.5"/><polygon class="cls-1" points="0 376 94.5 376 94.5 470.5 0 376"/><polygon class="cls-1" points="94.5 470.5 0 470.5 0 376 94.5 470.5"/><polygon class="cls-1" points="94 376 188.5 376 188.5 470.5 94 376"/><polygon class="cls-1" points="188.5 470.5 94 470.5 94 376 188.5 470.5"/><polygon class="cls-1" points="376 376 470.5 376 470.5 470.5 376 376"/><polygon class="cls-1" points="470.5 470.5 376 470.5 376 376 470.5 470.5"/><polygon class="cls-1" points="658 470 752.5 470 752.5 564.5 658 470"/><polygon class="cls-1" points="752.5 564.5 658 564.5 658 470 752.5 564.5"/><polygon class="cls-1" points="752 470 846.5 470 846.5 564.5 752 470"/><polygon class="cls-1" points="846.5 564.5 752 564.5 752 470 846.5 564.5"/><polygon class="cls-1" points="470 470 564.5 470 564.5 564.5 470 470"/><polygon class="cls-1" points="564.5 564.5 470 564.5 470 470 564.5 564.5"/><polygon class="cls-1" points="564 470 658.5 470 658.5 564.5 564 470"/><polygon class="cls-1" points="658.5 564.5 564 564.5 564 470 658.5 564.5"/><polygon class="cls-1" points="846 470 940.5 470 940.5 564.5 846 470"/><polygon class="cls-1" points="940.5 564.5 846 564.5 846 470 940.5 564.5"/><polygon class="cls-1" points="188 470 282.5 470 282.5 564.5 188 470"/><polygon class="cls-1" points="282.5 564.5 188 564.5 188 470 282.5 564.5"/><polygon class="cls-1" points="282 470 376.5 470 376.5 564.5 282 470"/><polygon class="cls-1" points="376.5 564.5 282 564.5 282 470 376.5 564.5"/><polygon class="cls-1" points="0 470 94.5 470 94.5 564.5 0 470"/><polygon class="cls-1" points="94.5 564.5 0 564.5 0 470 94.5 564.5"/><polygon class="cls-1" points="94 470 188.5 470 188.5 564.5 94 470"/><polygon class="cls-1" points="188.5 564.5 94 564.5 94 470 188.5 564.5"/><polygon class="cls-1" points="376 470 470.5 470 470.5 564.5 376 470"/><polygon class="cls-1" points="470.5 564.5 376 564.5 376 470 470.5 564.5"/><polygon class="cls-1" points="658 564 752.5 564 752.5 658.5 658 564"/><polygon class="cls-1" points="752.5 658.5 658 658.5 658 564 752.5 658.5"/><polygon class="cls-1" points="752 564 846.5 564 846.5 658.5 752 564"/><polygon class="cls-1" points="846.5 658.5 752 658.5 752 564 846.5 658.5"/><polygon class="cls-1" points="470 564 564.5 564 564.5 658.5 470 564"/><polygon class="cls-1" points="564.5 658.5 470 658.5 470 564 564.5 658.5"/><polygon class="cls-1" points="564 564 658.5 564 658.5 658.5 564 564"/><polygon class="cls-1" points="658.5 658.5 564 658.5 564 564 658.5 658.5"/><polygon class="cls-1" points="846 564 940.5 564 940.5 658.5 846 564"/><polygon class="cls-1" points="940.5 658.5 846 658.5 846 564 940.5 658.5"/><polygon class="cls-1" points="188 564 282.5 564 282.5 658.5 188 564"/><polygon class="cls-1" points="282.5 658.5 188 658.5 188 564 282.5 658.5"/><polygon class="cls-1" points="282 564 376.5 564 376.5 658.5 282 564"/><polygon class="cls-1" points="376.5 658.5 282 658.5 282 564 376.5 658.5"/><polygon class="cls-1" points="0 564 94.5 564 94.5 658.5 0 564"/><polygon class="cls-1" points="94.5 658.5 0 658.5 0 564 94.5 658.5"/><polygon class="cls-1" points="94 564 188.5 564 188.5 658.5 94 564"/><polygon class="cls-1" points="188.5 658.5 94 658.5 94 564 188.5 658.5"/><polygon class="cls-1" points="376 564 470.5 564 470.5 658.5 376 564"/><polygon class="cls-1" points="470.5 658.5 376 658.5 376 564 470.5 658.5"/><polygon class="cls-1" points="658 658 752.5 658 752.5 752.5 658 658"/><polygon class="cls-1" points="752.5 752.5 658 752.5 658 658 752.5 752.5"/><polygon class="cls-1" points="752 658 846.5 658 846.5 752.5 752 658"/><polygon class="cls-1" points="846.5 752.5 752 752.5 752 658 846.5 752.5"/><polygon class="cls-1" points="470 658 564.5 658 564.5 752.5 470 658"/><polygon class="cls-1" points="564.5 752.5 470 752.5 470 658 564.5 752.5"/><polygon class="cls-1" points="564 658 658.5 658 658.5 752.5 564 658"/><polygon class="cls-1" points="658.5 752.5 564 752.5 564 658 658.5 752.5"/><polygon class="cls-1" points="846 658 940.5 658 940.5 752.5 846 658"/><polygon class="cls-1" points="940.5 752.5 846 752.5 846 658 940.5 752.5"/><polygon class="cls-1" points="188 658 282.5 658 282.5 752.5 188 658"/><polygon class="cls-1" points="282.5 752.5 188 752.5 188 658 282.5 752.5"/><polygon class="cls-1" points="282 658 376.5 658 376.5 752.5 282 658"/><polygon class="cls-1" points="376.5 752.5 282 752.5 282 658 376.5 752.5"/><polygon class="cls-1" points="0 658 94.5 658 94.5 752.5 0 658"/><polygon class="cls-1" points="94.5 752.5 0 752.5 0 658 94.5 752.5"/><polygon class="cls-1" points="94 658 188.5 658 188.5 752.5 94 658"/><polygon class="cls-1" points="188.5 752.5 94 752.5 94 658 188.5 752.5"/><polygon class="cls-1" points="376 658 470.5 658 470.5 752.5 376 658"/><polygon class="cls-1" points="470.5 752.5 376 752.5 376 658 470.5 752.5"/><polygon class="cls-1" points="658 752 752.5 752 752.5 846.5 658 752"/><polygon class="cls-1" points="752.5 846.5 658 846.5 658 752 752.5 846.5"/><polygon class="cls-1" points="752 752 846.5 752 846.5 846.5 752 752"/><polygon class="cls-1" points="846.5 846.5 752 846.5 752 752 846.5 846.5"/><polygon class="cls-1" points="470 752 564.5 752 564.5 846.5 470 752"/><polygon class="cls-1" points="564.5 846.5 470 846.5 470 752 564.5 846.5"/><polygon class="cls-1" points="564 752 658.5 752 658.5 846.5 564 752"/><polygon class="cls-1" points="658.5 846.5 564 846.5 564 752 658.5 846.5"/><polygon class="cls-1" points="846 752 940.5 752 940.5 846.5 846 752"/><polygon class="cls-1" points="940.5 846.5 846 846.5 846 752 940.5 846.5"/><polygon class="cls-1" points="188 752 282.5 752 282.5 846.5 188 752"/><polygon class="cls-1" points="282.5 846.5 188 846.5 188 752 282.5 846.5"/><polygon class="cls-1" points="282 752 376.5 752 376.5 846.5 282 752"/><polygon class="cls-1" points="376.5 846.5 282 846.5 282 752 376.5 846.5"/><polygon class="cls-1" points="0 752 94.5 752 94.5 846.5 0 752"/><polygon class="cls-1" points="94.5 846.5 0 846.5 0 752 94.5 846.5"/><polygon class="cls-1" points="94 752 188.5 752 188.5 846.5 94 752"/><polygon class="cls-1" points="188.5 846.5 94 846.5 94 752 188.5 846.5"/><polygon class="cls-1" points="376 752 470.5 752 470.5 846.5 376 752"/><polygon class="cls-1" points="470.5 846.5 376 846.5 376 752 470.5 846.5"/><polygon class="cls-1" points="658 846 752.5 846 752.5 940.5 658 846"/><polygon class="cls-1" points="752.5 940.5 658 940.5 658 846 752.5 940.5"/><polygon class="cls-1" points="752 846 846.5 846 846.5 940.5 752 846"/><polygon class="cls-1" points="846.5 940.5 752 940.5 752 846 846.5 940.5"/><polygon class="cls-1" points="470 846 564.5 846 564.5 940.5 470 846"/><polygon class="cls-1" points="564.5 940.5 470 940.5 470 846 564.5 940.5"/><polygon class="cls-1" points="564 846 658.5 846 658.5 940.5 564 846"/><polygon class="cls-1" points="658.5 940.5 564 940.5 564 846 658.5 940.5"/><polygon class="cls-1" points="846 846 940.5 846 940.5 940.5 846 846"/><polygon class="cls-1" points="940.5 940.5 846 940.5 846 846 940.5 940.5"/><polygon class="cls-1" points="188 846 282.5 846 282.5 940.5 188 846"/><polygon class="cls-1" points="282.5 940.5 188 940.5 188 846 282.5 940.5"/><polygon class="cls-1" points="282 846 376.5 846 376.5 940.5 282 846"/><polygon class="cls-1" points="376.5 940.5 282 940.5 282 846 376.5 940.5"/><polygon class="cls-1" points="0 846 94.5 846 94.5 940.5 0 846"/><polygon class="cls-1" points="94.5 940.5 0 940.5 0 846 94.5 940.5"/><polygon class="cls-1" points="94 846 188.5 846 188.5 940.5 94 846"/><polygon class="cls-1" points="188.5 940.5 94 940.5 94 846 188.5 940.5"/><polygon class="cls-1" points="376 846 470.5 846 470.5 940.5 376 846"/><polygon class="cls-1" points="470.5 940.5 376 940.5 376 846 470.5 940.5"/></g></g></svg>