<svg aria-labeled-by="title" xmlns="http://www.w3.org/2000/svg" viewBox="0 0 658.5 658.5"> <title lang="en">A randomly colored assortment of triangles.</title><g
 data-name="Layer 2"><g data-name="Layer 1"><polygon class="cls-1" points="470 0 564.5 0 564.5 94.5 470 0"/><polygon class="cls-1" points="564.5 94.5 470 94.5 470 0 564.5 94.5"/><polygon class="cls-1" points="564 0 658.5 0 658.5 94.5 564 0"/><polygon class="cls-1" points="658.5 94.5 564 94.5 564 0 658.5 94.5"/><polygon class="cls-1" points="188 0 282.5 0 282.5 94.5 188 0"/><polygon class="cls-1" points="282.5 94.5 188 94.5 188 0 282.5 94.5"/><polygon class="cls-1" points="282 0 376.5 0 376.5 94.5 282 0"/><polygon class="cls-1" points="376.5 94.5 282 94.5 282 0 376.5 94.5"/><polygon class="cls-1" points="0 0 94.5 0 94.5 94.5 0 0"/><polygon class="cls-1" points="94.5 94.5 0 94.5 0 0 94.5 94.5"/><polygon class="cls-1" points="94 0 188.5 0 188.5 94.5 94 0"/><polygon class="cls-1" points="188.5 94.5 94 94.5 94 0 188.5 94.5"/><polygon class="cls-1" points="376 0 470.5 0 470.5 94.5 376 0"/><polygon class="cls-1" points="470.5 94.5 376 94.5 376 0 470.5 94.5"/><polygon class="cls-1" points="470 94 564.5 94 564.5 188.5 470 94"/><polygon class="cls-1" points="564.5 188.5 470 188.5 470 94 564.5 188.5"/><polygon class="cls-1" points="564 94 658.5 94 658.5 188.5 564 94"/><polygon class="cls-1" points="658.5 188.5 564 188.5 564 94 658.5 188.5"/><polygon class="cls-1" points="188 94 282.5 94 282.5 188.5 188 94"/><polygon class="cls-1" points="282.5 188.5 188 188.5 188 94 282.5 188.5"/><polygon class="cls-1" points="282 94 376.5 94 376.5 188.5 282 94"/><polygon class="cls-1" points="376.5 188.5 282 188.5 282 94 376.5 188.5"/><polygon class="cls-1" points="0 94 94.5 94 94.5 188.5 0 94"/><polygon class="cls-1" points="94.5 188.5 0 188.5 0 94 94.5 188.5"/><polygon class="cls-1" points="94 94 188.5 94 188.5 188.5 94 94"/><polygon class="cls-1" points="188.5 188.5 94 188.5 94 94 188.5 188.5"/><polygon class="cls-1" points="376 94 470.5 94 470.5 188.5 376 94"/><polygon class="cls-1" points="470.5 188.5 376 188.5 376 94 470.5 188.5"/><polygon class="cls-1" points="470 188 564.5 188 564.5 282.5 470 188"/><polygon class="cls-1" points="564.5 282.5 470 282.5 470 188 564.5 282.5"/><polygon class="cls-1" points="564 188 658.5 188 658.5 282.5 564 188"/><polygon class="cls-1" points="658.5 282.5 564 282.5 564 188 658.5 282.5"/><polygon class="cls-1" points="188 188 282.5 188 282.5 282.5 188 188"/><polygon class="cls-1" points="282.5 282.5 188 282.5 188 188 282.5 282.5"/><polygon class="cls-1" points="282 188 376.5 188 376.5 282.5 282 188"/><polygon class="cls-1" points="376.5 282.5 282 282.5 282 188 376.5 282.5"/><polygon class="cls-1" points="0 188 94.5 188 94.5 282.5 0 188"/><polygon class="cls-1" points="94.5 282.5 0 282.5 0 188 94.5 282.5"/><polygon class="cls-1" points="94 188 188.5 188 188.5 282.5 94 188"/><polygon class="cls-1" points="188.5 282.5 94 282.5 94 188 188.5 282.5"/><polygon class="cls-1" points="376 188 470.5 188 470.5 282.5 376 188"/><polygon class="cls-1" points="470.5 282.5 376 282.5 376 188 470.5 282.5"/><polygon class="cls-1" points="470 282 564.5 282 564.5 376.5 470 282"/><polygon class="cls-1" points="564.5 376.5 470 376.5 470 282 564.5 376.5"/><polygon class="cls-1" points="564 282 658.5 282 658.5 376.5 564 282"/><polygon class="cls-1" points="658.5 376.5 564 376.5 564 282 658.5 376.5"/><polygon class="cls-1" points="188 282 282.5 282 282.5 376.5 188 282"/><polygon class="cls-1" points="282.5 376.5 188 376.5 188 282 282.5 376.5"/><polygon class="cls-1" points="282 282 376.5 282 376.5 376.5 282 282"/><polygon class="cls-1" points="376.5 376.5 282 376.5 282 282 376.5 376.5"/><polygon class="cls-1" points="0 282 94.5 282 94.5 376.5 0 282"/><polygon class="cls-1" points="94.5 376.5 0 376.5 0 282 94.5 376.5"/><polygon class="cls-1" points="94 282 188.5 282 188.5 376.5 94 282"/><polygon class="cls-1" points="188.5 376.5 94 376.5 94 282 188.5 376.5"/><polygon class="cls-1" points="376 282 470.5 282 470.5 376.5 376 282"/><polygon class="cls-1" points="470.5 376.5 376 376.5 376 282 470.5 376.5"/><polygon class="cls-1" points="470 376 564.5 376 564.5 470.5 470 376"/><polygon class="cls-1" points="564.5 470.5 470 470.5 470 376 564.5 470.5"/><polygon class="cls-1" points="564 376 658.5 376 658.5 470.5 564 376"/><polygon class="cls-1" points="658.5 470.5 564 470.5 564 376 658.5 470.5"/><polygon class="cls-1" points="188 376 282.5 376 282.5 470.5 188 376"/><polygon class="cls-1" points="282.5 470.5 188 470.5 188 376 282.5 470.5"/><polygon class="cls-1" points="282 376 376.5 376 376.5 470.5 282 376"/><polygon class="cls-1" points="376.5 470.5 282 470.5 282 376 376.5 470.5"/><polygon class="cls-1" points="0 376 94.5 376 94.5 470.5 0 376"/><polygon class="cls-1" points="94.5 470.5 0 470.5 0 376 94.5 470.5"/><polygon class="cls-1" points="94 376 188.5 376 188.5 470.5 94 376"/><polygon class="cls-1" points="188.5 470.5 94 470.5 94 376 188.5 470.5"/><polygon class="cls-1" points="376 376 470.5 376 470.5 470.5 376 376"/><polygon class="cls-1" points="470.5 470.5 376 470.5 376 376 470.5 470.5"/><polygon class="cls-1" points="470 470 564.5 470 564.5 564.5 470 470"/><polygon class="cls-1" points="564.5 564.5 470 564.5 470 470 564.5 564.5"/><polygon class="cls-1" points="564 470 658.5 470 658.5 564.5 564 470"/><polygon class="cls-1" points="658.5 564.5 564 564.5 564 470 658.5 564.5"/><polygon class="cls-1" points="188 470 282.5 470 282.5 564.5 188 470"/><polygon class="cls-1" points="282.5 564.5 188 564.5 188 470 282.5 564.5"/><polygon class="cls-1" points="282 470 376.5 470 376.5 564.5 282 470"/><polygon class="cls-1" points="376.5 564.5 282 564.5 282 470 376.5 564.5"/><polygon class="cls-1" points="0 470 94.5 470 94.5 564.5 0 470"/><polygon class="cls-1" points="94.5 564.5 0 564.5 0 470 94.5 564.5"/><polygon class="cls-1" points="94 470 188.5 470 188.5 564.5 94 470"/><polygon class="cls-1" points="188.5 564.5 94 564.5 94 470 188.5 564.5"/><polygon class="cls-1" points="376 470 470.5 470 470.5 564.5 376 470"/><polygon class="cls-1" points="470.5 564.5 376 564.5 376 470 470.5 564.5"/><polygon class="cls-1" points="470 564 564.5 564 564.5 658.5 470 564"/><polygon class="cls-1" points="564.5 658.5 470 658.5 470 564 564.5 658.5"/><polygon class="cls-1" points="564 564 658.5 564 658.5 658.5 564 564"/><polygon class="cls-1" points="658.5 658.5 564 658.5 564 564 658.5 658.5"/><polygon class="cls-1" points="188 564 282.5 564 282.5 658.5 188 564"/><polygon class="cls-1" points="282.5 658.5 188 658.5 188 564 282.5 658.5"/><polygon class="cls-1" points="282 564 376.5 564 376.5 658.5 282 564"/><polygon class="cls-1" points="376.5 658.5 282 658.5 282 564 376.5 658.5"/><polygon class="cls-1" points="0 564 94.5 564 94.5 658.5 0 564"/><polygon class="cls-1" points="94.5 658.5 0 658.5 0 564 94.5 658.5"/><polygon class="cls-1" points="94 564 188.5 564 188.5 658.5 94 564"/><polygon class="cls-1" points="188.5 658.5 94 658.5 94 564 188.5 658.5"/><polygon class="cls-1" points="376 564 470.5 564 470.5 658.5 376 564"/><polygon class="cls-1" points="470.5 658.5 376 658.5 376 564 470.5 658.5"/></g></g></svg>